PathFileType	4	(X/Y/Z)	path1_05_0-945.trc
DataRate	CameraRate	NumFrames	NumMarkers	Units	OrigDataRate	OrigDataStartFrame	OrigNumFrames
30	30	9	22	m	30	708	945
Frame#	Time	Hip			RHip			RKnee			RAnkle			RBigToe			RSmallToe			RHeel			LHip			LKnee			LAnkle			LBigToe			LSmallToe			LHeel			Neck			Head			Nose			RShoulder			RElbow			RWrist			LShoulder			LElbow			LWrist		
		X1	Y1	Z1	X2	Y2	Z2	X3	Y3	Z3	X4	Y4	Z4	X5	Y5	Z5	X6	Y6	Z6	X7	Y7	Z7	X8	Y8	Z8	X9	Y9	Z9	X10	Y10	Z10	X11	Y11	Z11	X12	Y12	Z12	X13	Y13	Z13	X14	Y14	Z14	X15	Y15	Z15	X16	Y16	Z16	X17	Y17	Z17	X18	Y18	Z18	X19	Y19	Z19	X20	Y20	Z20	X21	Y21	Z21	X22	Y22	Z22
709	23.633333333333333	2.7140424592778736	0.7835062118266569	0.35490986423331355	2.7307628223991562	0.7530612877653537	0.4438763060790543	2.8716452343084327	0.44869863356340156	0.3861943155128195	2.9637823255433102	0.060724869296891096	0.3771483143228036	3.1411222573001805	0.010599746775029641	0.39059237531262425	3.109201434737981	0.010309775071640777	0.4744285813980858	2.9348690947060865	-0.007222142643886629	0.4019324409841351	2.6937181748249173	0.7494666065412718	0.2708990931429947	2.6172987030668047	0.4430745504251123	0.2659703577562083	2.4477890141492384	0.09841489679374	0.27074317267805986	2.59709307441308	0.0022878107912378998	0.2910123881913769	2.56843516194865	0.008288530001474658	0.22562731548419726	2.387202664889486	0.03624464667781148	0.2769137781372588	2.736258110175333	1.4087917847740938	0.3195267793969137	2.704410494016161	1.5996125680484832	0.3363716969407125	2.840238099247789	1.449947347688902	0.34042058646188844	2.6768545200632583	1.2854840026468537	0.5117600411690748	2.631840004736648	1.0095452496982638	0.5519681193283136	2.712426018994163	0.8002091167015392	0.5588461383416278	2.7282831438558577	1.3025056906920374	0.1994553409777451	2.7796339016247296	1.0266737653816806	0.1551291689032048	2.9083633563413533	0.862058097387705	0.16134541306941766
710	23.666666666666668	2.747096732854889	0.7819764546115852	0.35936863980169237	2.7702548436108625	0.7514120385230245	0.44544449354936194	2.9061635898601934	0.44928142176357444	0.3844346710869867	2.9739436379699944	0.06246098046208544	0.37356758775086507	3.1504025303782046	0.0002857028302326844	0.3867050698573373	3.112994077121096	-0.00968771116550091	0.4328514699871277	2.941675896364865	-0.0067947628821905925	0.39530566695609554	2.732405902358405	0.7490826053856359	0.27853426820619465	2.6545369775893826	0.4383045594292853	0.26483654859629885	2.4598230180838403	0.11226906593169232	0.2652114599304278	2.598365966760918	0.001955428464308942	0.29507686463359406	2.5695489346783775	-6.967470043852457e-05	0.2226760801806454	2.393481909205647	0.053536131988242544	0.27364936699603165	2.7663249486533448	1.4094365092542556	0.3233441739367496	2.819245487623745	1.6650631787163168	0.38189356447220774	2.904092090849973	1.5266168480925661	0.3450589294988225	2.6981043893459917	1.2856312932415026	0.5150895584446187	2.662483581087255	1.0080528720458795	0.5581496536497115	2.741685114758906	0.8032203514385713	0.5636437843775662	2.742799502579381	1.2880519082080601	0.18218329715417644	2.8054921906458743	1.026852019220583	0.16123380069074944	2.938744439206338	0.8661982240502898	0.14672917477893288
711	23.7	2.785835829451316	0.7843505410378696	0.36663256132267064	2.811214733175854	0.7556425614577673	0.4568802174230205	2.935337011962045	0.4606151167584047	0.3863553047815781	2.977499043937257	0.06427121105610861	0.37196048009113086	3.1552143120398424	-0.0007770146596843869	0.3876226018133434	3.119549619611807	-0.0011446680742870604	0.4683261432020207	2.940042986143173	-0.012513403519830137	0.3915410906633064	2.772212571015529	0.7517407577161377	0.288001337995037	2.705114897596598	0.4376546059153969	0.26631786589425616	2.4765136627061177	0.13312026926891277	0.26637709256782055	2.6022463197782786	-0.0038479600356066583	0.2957560152186169	2.571777119145745	-0.006752994853679732	0.22115848138359653	2.3916974295231976	0.06046161606455501	0.2886633441391594	2.796405738136871	1.412268891564648	0.32577329387603915	2.8447328051549485	1.6660447666750422	0.38609340154702554	2.797728002050275	1.464020241854699	0.399982781521843	2.7225836629038245	1.2866369844041943	0.5225542289474683	2.696953515592882	1.0065143410501396	0.5678604289712041	2.77383377254213	0.8022638277236722	0.5711450060517951	2.7748825454915096	1.2874280376987015	0.18445299367524698	2.8322411700889694	1.02654323628414	0.1695196090446327	2.956586716903558	0.867010087883078	0.15655308897302878
712	23.733333333333334	2.823117283051844	0.7877920129983778	0.371245407971353	2.847251764098329	0.7589861239423077	0.4559737000021882	2.9607943506259637	0.45793152638521756	0.37747365364118485	2.9817484981780558	0.06352002675595256	0.370121456625697	3.154832919457459	-0.000397200757033357	0.3854250287333218	3.1224010595888965	0.0076039727727440914	0.4625556757565739	2.9342355767913246	-0.023593199176669	0.3953650792322155	2.8092619649473525	0.7574226609743868	0.2897015724177227	2.774747471482639	0.4364180228661513	0.2559001976321396	2.504345170145372	0.15901033210443374	0.2654625382863669	2.5987330247998366	-0.024854821334164126	0.2724654979042509	2.5683394296816835	-0.00992209674525281	0.22794512441252607	2.429070559026504	0.12139477277307796	0.27328793619601366	2.8242861834144684	1.4114976363743779	0.3338585356758502	2.87613239245417	1.6705501339045872	0.34611067207845564	2.867611305570087	1.4733913875811857	0.3785799288174102	2.7913405821320567	1.3092403992119452	0.49693470518366284	2.772214475351774	1.0181773246768604	0.5417602981400576	2.819286357394847	0.8004422412460981	0.5693149643106189	2.799323352627125	1.291894921264705	0.18897475724769772	2.853062317049896	1.0314202276715538	0.17506596869763721	2.956114984377134	0.8416813091986037	0.16888408234517413
713	23.766666666666666	2.854719692671954	0.7926212003791716	0.3743201403287152	2.8773884338182705	0.764317011531312	0.4565097122687504	2.980037907048657	0.46450673161353767	0.3757604113164767	2.98297542102732	0.06620733702577947	0.3755644863603903	3.1597209395440293	-0.0013040339971888506	0.387120320431895	3.1263303035108336	0.0071760188658815905	0.4585466128863968	2.9342840923080677	-0.019941017221966655	0.3899364277244254	2.8429554729593978	0.761068331214805	0.2911811608668626	2.8350524927768195	0.43552514838493017	0.2541389966507205	2.528878763453375	0.1546573796741805	0.28849190712778217	2.6090098208964236	-0.02535024507072761	0.2751937938953832	2.5613743304701924	-0.009416010829178955	0.24152896195883244	2.4532525096134004	0.1381109828605149	0.29802337328939016	2.850980845586464	1.4138040610236338	0.3389924039075613	2.902427124551481	1.669343159755779	0.361575810675645	2.987687283911008	1.533910105415362	0.3565542493460731	2.816778593412107	1.3123121790612229	0.4997613203614112	2.8054693792334815	1.0216630583761044	0.5404261779769792	2.8557593175918194	0.8040773703142075	0.5671974570036427	2.82157083314692	1.295640113477233	0.19516993995188164	2.854560069874864	1.0225667239928597	0.14667155144486607	2.9659318184169634	0.8526222162851486	0.14171816716288205
714	23.8	2.875334175880571	0.790934276133058	0.38132059230710774	2.894772419047163	0.7630448752055204	0.46336547861581445	2.99785000935427	0.4541002310212471	0.3711635492105075	2.9845511409934464	0.0606284851153252	0.3728892936195683	3.1622348741040596	-0.003363594406745681	0.3945530820136249	3.129884694563587	0.004661585627815604	0.4517169842400158	2.9224438449566312	-0.016676906331158235	0.37030595669719163	2.8668413972638676	0.7605473458878516	0.29889113781813814	2.8391622052204055	0.435404940319715	0.27835002976467316	2.582308944861166	0.1763819460311853	0.28580360413241995	2.628067327909133	-0.01714757255378578	0.2690149098835036	2.5993153488342133	0.007402717194665536	0.22100801383387128	2.5189360785201598	0.20239794221809174	0.2740789200293877	2.8778734952155673	1.4146005536695896	0.3430390490666029	2.9441991536007888	1.6742757356362068	0.35179232570068264	3.0147061540284357	1.5336955142414597	0.3744350930221512	2.812330949701603	1.2894953451386486	0.5370352040305636	2.83157784156223	1.0214647122024458	0.5374090200776781	2.8967459090636396	0.8044820553525645	0.5731024510253886	2.838371594169948	1.297685725963991	0.1999175182499696	2.861728840187731	1.0230392310666458	0.15694313632564563	2.9710665653683144	0.8318381659147096	0.17962311969984568
715	23.833333333333332	2.9007442507968686	0.7911275883659817	0.3875837462234121	2.920944914963228	0.7589594339091001	0.4658244140121461	3.013154888503759	0.44281833003539406	0.36387113822297884	2.985708257243737	0.0630958081974628	0.37498925543963274	3.1635213431602667	0.007405456280575647	0.42037987788612047	3.1312274081806497	-4.5451916527977686e-06	0.45295968085087185	2.9257898360096766	-0.012563117695183236	0.37258444835485666	2.8914768409133935	0.7589462697991665	0.3031699742750349	2.891795391388657	0.435661949967886	0.2804025728964071	2.654065113749684	0.21935593197901032	0.2646567978946832	2.6668035936632215	-0.005142925857928717	0.2725736726987336	2.6045743892765523	0.01564157222275761	0.24450347881318144	2.5750938117920668	0.21633223771191215	0.27276199726544137	2.901777752538076	1.4235873251348798	0.3463937896681821	2.958647007679788	1.6715904467548877	0.37106829925163876	3.044361303337817	1.5330738920994853	0.3792517721190482	2.873386815799096	1.3174000189326318	0.5043718953087121	2.868688709563078	1.0188788384342953	0.5383069424609489	2.9337810811425733	0.8025666683736475	0.5737305623384352	2.8575325338424964	1.3012677675661888	0.20287873027196138	2.8738612210580485	1.0228405991036795	0.16688258411310306	2.947700092637378	0.8221956860694334	0.14936384460160135
716	23.866666666666667	2.9167143198835475	0.7909485523881308	0.39081562661205266	2.940424407187808	0.7624750762296202	0.47290800704958746	3.0254919646197873	0.4389542029950745	0.36549667942885333	2.9850723282799425	0.05594666324428706	0.37683369904916886	3.15069844807501	-0.006313065868111888	0.4049264262512666	3.1171461125169175	-0.01735601605171871	0.4418929976965833	2.941933423931308	-0.012187968022227444	0.3691262663908204	2.9079163726236956	0.7609828472639221	0.30867066632320517	2.9229153827827634	0.44084276631048747	0.2816776262564698	2.710096013418417	0.22244370140757674	0.2726006809444627	2.736316008278192	0.010824497350523092	0.27279643226265987	2.6720872566064933	0.02500748262299421	0.249573498989972	2.6375030601781515	0.21261762336150428	0.2765178965232033	2.929841261168536	1.4198679248580408	0.35022496383774027	2.992177099303253	1.6749069363179208	0.359987918523549	3.008894808340539	1.4686765013274328	0.38727948747326635	2.9137425031801123	1.31904161753339	0.5035231708949713	2.9042011495929465	1.0258587621117188	0.5443567128183164	2.9737787735287093	0.8103127932301114	0.5724572696222154	2.8771394481914903	1.304181454141368	0.20825157428064647	2.879240003363692	1.025711479352187	0.16637693481216867	2.9877075144077456	0.8127481921862382	0.18688983715079474
717	23.9	2.9495405784976554	0.7938657868512546	0.39416418260672986	2.9645046643384556	0.761980650563208	0.47540463580306286	3.020610217781738	0.4274109910530568	0.37808137378511436	2.983617638594676	0.05055172859688365	0.3794378363267959	3.1566244632082796	-0.004777047961019163	0.4006137861334962	3.1225318528259502	-0.014601475737816661	0.4367001822148476	2.9435832953681604	-0.011087562641597423	0.3687504641543768	2.950411723868275	0.7613467467575298	0.3082901336074195	3.0519635898589024	0.4476231007116376	0.2543825723999018	2.7648005353146528	0.20872243947504565	0.277748435947323	2.809743383956264	0.0009860222576542146	0.2836385197687167	2.751057737433919	0.03575170499133954	0.2624301185103642	2.697161697266968	0.19468742608792652	0.28350247663380834	2.9579055005991077	1.4201052751290606	0.35281516666764523	3.015745146001462	1.6734021705041013	0.37819351055728084	3.01428895870154	1.4791964259208437	0.37359666990906815	2.92576526056725	1.2932565671779441	0.5505776924146216	2.9338412836956227	1.0291644578122063	0.5473160950466139	3.0099238617611808	0.8156949419218785	0.5739420599343279	2.90628789106907	1.3036594904044647	0.2130140956401802	2.9297967967708978	1.0273023382528301	0.2070307751148098	2.9894950031071543	0.8213554570733885	0.16140327014225653
